<svg width="40" height="40" viewBox="0 0 40 40" fill="none" xmlns="http://www.w3.org/2000/svg">
<g clip-path="url(#clip0_2238_5102)">
<rect width="40" height="40" fill="white"/>
<path d="M38.75 12.5C39.0815 12.5 39.3995 12.3683 39.6339 12.1339C39.8683 11.8995 40 11.5815 40 11.25V3.75C40 2.75544 39.6049 1.80161 38.9016 1.09835C38.1984 0.395088 37.2446 0 36.25 0L3.75 0C2.75544 0 1.80161 0.395088 1.09835 1.09835C0.395088 1.80161 0 2.75544 0 3.75L0 36.25C0 37.2446 0.395088 38.1984 1.09835 38.9016C1.80161 39.6049 2.75544 40 3.75 40H36.25C37.2446 40 38.1984 39.6049 38.9016 38.9016C39.6049 38.1984 40 37.2446 40 36.25V16.25C40 15.9185 39.8683 15.6005 39.6339 15.3661C39.3995 15.1317 39.0815 15 38.75 15C38.4185 15 38.1005 15.1317 37.8661 15.3661C37.6317 15.6005 37.5 15.9185 37.5 16.25V36.25C37.5 36.5815 37.3683 36.8995 37.1339 37.1339C36.8995 37.3683 36.5815 37.5 36.25 37.5H3.75C3.41848 37.5 3.10054 37.3683 2.86612 37.1339C2.6317 36.8995 2.5 36.5815 2.5 36.25V12.5H38.75ZM2.5 3.75C2.5 3.41848 2.6317 3.10054 2.86612 2.86612C3.10054 2.6317 3.41848 2.5 3.75 2.5H36.25C36.5815 2.5 36.8995 2.6317 37.1339 2.86612C37.3683 3.10054 37.5 3.41848 37.5 3.75V10H2.5V3.75Z" fill="#000033"/>
<path d="M33.75 5C33.5028 5 33.2611 5.07331 33.0555 5.21066C32.85 5.34801 32.6898 5.54324 32.5952 5.77165C32.5005 6.00005 32.4758 6.25139 32.524 6.49386C32.5723 6.73634 32.6913 6.95907 32.8661 7.13388C33.0409 7.3087 33.2637 7.42775 33.5061 7.47598C33.7486 7.52421 33.9999 7.49946 34.2284 7.40485C34.4568 7.31024 34.652 7.15002 34.7893 6.94446C34.9267 6.7389 35 6.49723 35 6.25C35 5.91848 34.8683 5.60054 34.6339 5.36612C34.3995 5.1317 34.0815 5 33.75 5Z" fill="#05058C"/>
<path d="M28.75 5C28.5028 5 28.2611 5.07331 28.0555 5.21066C27.85 5.34801 27.6898 5.54324 27.5952 5.77165C27.5005 6.00005 27.4758 6.25139 27.524 6.49386C27.5723 6.73634 27.6913 6.95907 27.8661 7.13388C28.0409 7.3087 28.2637 7.42775 28.5061 7.47598C28.7486 7.52421 28.9999 7.49946 29.2284 7.40485C29.4568 7.31024 29.652 7.15002 29.7893 6.94446C29.9267 6.7389 30 6.49723 30 6.25C30 5.91848 29.8683 5.60054 29.6339 5.36612C29.3995 5.1317 29.0815 5 28.75 5Z" fill="#000033"/>
<path d="M23.75 5C23.5028 5 23.2611 5.07331 23.0555 5.21066C22.85 5.34801 22.6898 5.54324 22.5952 5.77165C22.5005 6.00005 22.4758 6.25139 22.524 6.49386C22.5723 6.73634 22.6913 6.95907 22.8661 7.13388C23.0409 7.3087 23.2637 7.42775 23.5061 7.47598C23.7486 7.52421 23.9999 7.49946 24.2284 7.40485C24.4568 7.31024 24.652 7.15002 24.7893 6.94446C24.9267 6.7389 25 6.49723 25 6.25C25 5.91848 24.8683 5.60054 24.6339 5.36612C24.3995 5.1317 24.0815 5 23.75 5Z" fill="#000033"/>
<path d="M29.6366 32.8624L24.6366 27.8624C25.8447 26.2103 26.3849 24.1631 26.149 22.1301C25.9131 20.097 24.9187 18.2279 23.3644 16.8963C21.8101 15.5646 19.8106 14.8687 17.7654 14.9474C15.7202 15.0262 13.7801 15.8739 12.3329 17.3212C10.8857 18.7684 10.0379 20.7085 9.95915 22.7537C9.88037 24.7989 10.5764 26.7984 11.908 28.3527C13.2396 29.907 15.1087 30.9014 17.1418 31.1373C19.1749 31.3731 21.222 30.833 22.8741 29.6249L27.8741 34.6249C28.1049 34.8604 28.4194 34.9952 28.7491 34.9999C28.9974 35.0014 29.2405 34.9288 29.4474 34.7916C29.6543 34.6543 29.8156 34.4586 29.9108 34.2293C30.0061 34 30.0308 33.7475 29.982 33.5041C29.9331 33.2606 29.8129 33.0373 29.6366 32.8624ZM12.4991 23.1249C12.4991 22.0124 12.829 20.9249 13.4471 19.9998C14.0652 19.0748 14.9437 18.3538 15.9715 17.9281C16.9994 17.5023 18.1304 17.391 19.2215 17.608C20.3127 17.825 21.3149 18.3608 22.1016 19.1474C22.8883 19.9341 23.424 20.9364 23.6411 22.0275C23.8581 23.1187 23.7467 24.2497 23.321 25.2775C22.8952 26.3053 22.1742 27.1839 21.2492 27.8019C20.3242 28.42 19.2367 28.7499 18.1241 28.7499C16.6333 28.7466 15.2045 28.1529 14.1503 27.0987C13.0961 26.0446 12.5024 24.6157 12.4991 23.1249Z" fill="#05058C"/>
</g>
<defs>
<clipPath id="clip0_2238_5102">
<rect width="40" height="40" fill="white"/>
</clipPath>
</defs>
</svg>
