<svg width="40" height="40" viewBox="0 0 40 40" fill="none" xmlns="http://www.w3.org/2000/svg">
<g clip-path="url(#clip0_2238_5096)">
<rect width="40" height="40" fill="white"/>
<path d="M33.4625 15.7242C33.2004 15.5226 32.869 15.4331 32.541 15.4752C32.213 15.5174 31.9151 15.6878 31.7125 15.9492L28.225 20.4117C27.3716 20.0383 26.4296 19.9153 25.5089 20.0569C24.5882 20.1986 23.7267 20.5991 23.025 21.2117L18.425 17.9867C18.737 17.1809 18.8347 16.3079 18.7088 15.453C18.5829 14.5981 18.2376 13.7905 17.7065 13.1088C17.1754 12.4271 16.4768 11.8947 15.6786 11.5635C14.8805 11.2323 14.0102 11.1136 13.1525 11.219C12.2948 11.3243 11.4791 11.6502 10.7849 12.1647C10.0907 12.6793 9.54164 13.365 9.19137 14.1549C8.84111 14.9449 8.70155 15.8121 8.78631 16.6721C8.87107 17.532 9.17725 18.3553 9.675 19.0617L7.2375 21.7992C6.47682 21.4186 5.6316 21.2383 4.7818 21.2754C3.93199 21.3125 3.10571 21.5658 2.38111 22.0113C1.65651 22.4568 1.05755 23.0798 0.640885 23.8214C0.224224 24.563 0.00364006 25.3986 0 26.2492C0 26.5807 0.131696 26.8987 0.366117 27.1331C0.600537 27.3675 0.918479 27.4992 1.25 27.4992C1.58152 27.4992 1.89946 27.3675 2.13388 27.1331C2.3683 26.8987 2.5 26.5807 2.5 26.2492C2.5 25.7548 2.64662 25.2714 2.92133 24.8603C3.19603 24.4492 3.58648 24.1287 4.04329 23.9395C4.50011 23.7503 5.00277 23.7008 5.48773 23.7972C5.97268 23.8937 6.41814 24.1318 6.76777 24.4814C7.1174 24.8311 7.3555 25.2765 7.45196 25.7615C7.54843 26.2464 7.49892 26.7491 7.3097 27.2059C7.12048 27.6627 6.80005 28.0532 6.38893 28.3279C5.9778 28.6026 5.49445 28.7492 5 28.7492C4.66848 28.7492 4.35054 28.8809 4.11612 29.1153C3.8817 29.3497 3.75 29.6677 3.75 29.9992C3.75 30.3307 3.8817 30.6487 4.11612 30.8831C4.35054 31.1175 4.66848 31.2492 5 31.2492C5.90823 31.2476 6.79886 30.9986 7.57626 30.529C8.35366 30.0594 8.98847 29.3869 9.41254 28.5838C9.8366 27.7806 10.0339 26.8771 9.98324 25.9703C9.93258 25.0635 9.63588 24.1876 9.125 23.4367L11.5125 20.6992C12.3875 21.1467 13.3773 21.3194 14.3521 21.1944C15.3269 21.0695 16.2412 20.6529 16.975 19.9992L21.575 23.2242C21.2582 24.0388 21.1605 24.9223 21.2916 25.7864C21.4226 26.6506 21.778 27.4653 22.3221 28.1493C22.8663 28.8333 23.5802 29.3627 24.3928 29.6848C25.2054 30.0068 26.0882 30.1102 26.9532 29.9847C27.8182 29.8591 28.6351 29.509 29.3226 28.9693C30.0101 28.4295 30.5441 27.719 30.8713 26.9085C31.1986 26.098 31.3076 25.2159 31.1877 24.3501C31.0677 23.4844 30.7228 22.6652 30.1875 21.9742L33.75 17.4992C33.8505 17.3648 33.9229 17.2116 33.9629 17.0486C34.0029 16.8857 34.0097 16.7163 33.9829 16.5507C33.9561 16.3851 33.8962 16.2265 33.8068 16.0845C33.7174 15.9425 33.6003 15.82 33.4625 15.7242ZM13.75 18.7492C13.2555 18.7492 12.7722 18.6026 12.3611 18.3279C11.95 18.0532 11.6295 17.6627 11.4403 17.2059C11.2511 16.7491 11.2016 16.2464 11.298 15.7615C11.3945 15.2765 11.6326 14.8311 11.9822 14.4814C12.3319 14.1318 12.7773 13.8937 13.2623 13.7972C13.7472 13.7008 14.2499 13.7503 14.7067 13.9395C15.1635 14.1287 15.554 14.4492 15.8287 14.8603C16.1034 15.2714 16.25 15.7548 16.25 16.2492C16.25 16.9123 15.9866 17.5481 15.5178 18.017C15.0489 18.4858 14.413 18.7492 13.75 18.7492ZM26.25 27.4992C25.7555 27.4992 25.2722 27.3526 24.8611 27.0779C24.45 26.8032 24.1295 26.4127 23.9403 25.9559C23.7511 25.4991 23.7016 24.9964 23.798 24.5115C23.8945 24.0265 24.1326 23.5811 24.4822 23.2314C24.8319 22.8818 25.2773 22.6437 25.7623 22.5472C26.2472 22.4508 26.7499 22.5003 27.2067 22.6895C27.6635 22.8787 28.054 23.1992 28.3287 23.6103C28.6034 24.0214 28.75 24.5048 28.75 24.9992C28.75 25.6623 28.4866 26.2981 28.0178 26.767C27.5489 27.2358 26.913 27.4992 26.25 27.4992Z" fill="#000033"/>
<path d="M35 18.75C34.0111 18.75 33.0444 18.4568 32.2222 17.9074C31.3999 17.3579 30.759 16.5771 30.3806 15.6634C30.0022 14.7498 29.9031 13.7445 30.0961 12.7746C30.289 11.8046 30.7652 10.9137 31.4645 10.2145C32.1637 9.51521 33.0546 9.039 34.0246 8.84608C34.9945 8.65315 35.9998 8.75217 36.9134 9.1306C37.8271 9.50904 38.6079 10.1499 39.1574 10.9722C39.7068 11.7944 40 12.7611 40 13.75C40 15.0761 39.4732 16.3479 38.5355 17.2855C37.5979 18.2232 36.3261 18.75 35 18.75ZM35 11.25C34.5056 11.25 34.0222 11.3966 33.6111 11.6713C33.2 11.946 32.8795 12.3365 32.6903 12.7933C32.5011 13.2501 32.4516 13.7528 32.548 14.2377C32.6445 14.7227 32.8826 15.1681 33.2322 15.5178C33.5819 15.8674 34.0273 16.1055 34.5123 16.202C34.9972 16.2984 35.4999 16.2489 35.9567 16.0597C36.4135 15.8705 36.804 15.5501 37.0787 15.1389C37.3534 14.7278 37.5 14.2445 37.5 13.75C37.5 13.087 37.2366 12.4511 36.7678 11.9822C36.2989 11.5134 35.663 11.25 35 11.25Z" fill="#05058C"/>
</g>
<defs>
<clipPath id="clip0_2238_5096">
<rect width="40" height="40" fill="white"/>
</clipPath>
</defs>
</svg>
