<svg width="40" height="40" viewBox="0 0 40 40" fill="none" xmlns="http://www.w3.org/2000/svg">
<path d="M17.4994 32.4993C17.3349 32.5002 17.1718 32.4687 17.0196 32.4065C16.8673 32.3443 16.7287 32.2526 16.6119 32.1368L12.8619 28.3868C12.7448 28.2706 12.6518 28.1323 12.5883 27.98C12.5249 27.8277 12.4922 27.6643 12.4922 27.4993C12.4922 27.3342 12.5249 27.1709 12.5883 27.0185C12.6518 26.8662 12.7448 26.728 12.8619 26.6118L16.6119 22.8618C16.7285 22.7452 16.8668 22.6528 17.0191 22.5897C17.1714 22.5266 17.3346 22.4941 17.4994 22.4941C17.6643 22.4941 17.8275 22.5266 17.9797 22.5897C18.132 22.6528 18.2704 22.7452 18.3869 22.8618C18.5035 22.9783 18.5959 23.1167 18.659 23.2689C18.7221 23.4212 18.7546 23.5844 18.7546 23.7493C18.7546 23.9141 18.7221 24.0773 18.659 24.2296C18.5959 24.3818 18.5035 24.5202 18.3869 24.6368L15.5119 27.4993L18.3869 30.3618C18.5632 30.5366 18.6834 30.76 18.7323 31.0034C18.7811 31.2468 18.7564 31.4993 18.6611 31.7286C18.5659 31.9579 18.4046 32.1537 18.1977 32.2909C17.9908 32.4282 17.7477 32.5007 17.4994 32.4993Z" fill="#05058C"/>
<path d="M29.9995 32.4993C29.7512 32.5007 29.5081 32.4282 29.3012 32.2909C29.0943 32.1537 28.933 31.9579 28.8377 31.7286C28.7425 31.4993 28.7178 31.2468 28.7666 31.0034C28.8154 30.76 28.9357 30.5366 29.112 30.3618L31.987 27.4993L29.112 24.6368C28.8766 24.4014 28.7443 24.0821 28.7443 23.7493C28.7443 23.4164 28.8766 23.0971 29.112 22.8618C29.3473 22.6264 29.6666 22.4941 29.9995 22.4941C30.3323 22.4941 30.6516 22.6264 30.887 22.8618L34.637 26.6118C34.7541 26.728 34.8471 26.8662 34.9106 27.0185C34.974 27.1709 35.0067 27.3342 35.0067 27.4993C35.0067 27.6643 34.974 27.8277 34.9106 27.98C34.8471 28.1323 34.7541 28.2706 34.637 28.3868L30.887 32.1368C30.7702 32.2526 30.6316 32.3443 30.4793 32.4065C30.327 32.4687 30.164 32.5002 29.9995 32.4993Z" fill="#05058C"/>
<path d="M22.4999 34.9994C22.3124 35.0032 22.1265 34.9647 21.9559 34.8869C21.7853 34.8091 21.6344 34.6939 21.5143 34.5499C21.3943 34.4058 21.3082 34.2366 21.2624 34.0547C21.2166 33.8729 21.2124 33.6831 21.2499 33.4994L23.7499 20.9994C23.8162 20.6678 24.0115 20.3762 24.2928 20.1887C24.5741 20.0012 24.9184 19.9331 25.2499 19.9994C25.5814 20.0657 25.873 20.261 26.0606 20.5423C26.2481 20.8236 26.3162 21.1678 26.2499 21.4994L23.7499 33.9994C23.6915 34.286 23.5344 34.543 23.306 34.7257C23.0776 34.9084 22.7923 35.0053 22.4999 34.9994Z" fill="#05058C"/>
<path d="M10 17.5H38.75C39.0815 17.5 39.3995 17.3683 39.6339 17.1339C39.8683 16.8995 40 16.5815 40 16.25V11.25C40 10.2554 39.6049 9.30161 38.9017 8.59835C38.1984 7.89509 37.2446 7.5 36.25 7.5H32.5V3.75C32.5 2.75544 32.1049 1.80161 31.4017 1.09835C30.6984 0.395088 29.7446 0 28.75 0L3.75 0C2.75544 0 1.80161 0.395088 1.09835 1.09835C0.395088 1.80161 0 2.75544 0 3.75L0 28.75C0 29.7446 0.395088 30.6984 1.09835 31.4017C1.80161 32.1049 2.75544 32.5 3.75 32.5H7.5V36.25C7.5 37.2446 7.89509 38.1984 8.59835 38.9017C9.30161 39.6049 10.2554 40 11.25 40H36.25C37.2446 40 38.1984 39.6049 38.9017 38.9017C39.6049 38.1984 40 37.2446 40 36.25V21.25C40 20.9185 39.8683 20.6005 39.6339 20.3661C39.3995 20.1317 39.0815 20 38.75 20C38.4185 20 38.1005 20.1317 37.8661 20.3661C37.6317 20.6005 37.5 20.9185 37.5 21.25V36.25C37.5 36.5815 37.3683 36.8995 37.1339 37.1339C36.8995 37.3683 36.5815 37.5 36.25 37.5H11.25C10.9185 37.5 10.6005 37.3683 10.3661 37.1339C10.1317 36.8995 10 36.5815 10 36.25V17.5ZM37.5 11.25V15H10V11.25C10 10.9185 10.1317 10.6005 10.3661 10.3661C10.6005 10.1317 10.9185 10 11.25 10H36.25C36.5815 10 36.8995 10.1317 37.1339 10.3661C37.3683 10.6005 37.5 10.9185 37.5 11.25ZM3.75 30C3.41848 30 3.10054 29.8683 2.86612 29.6339C2.6317 29.3995 2.5 29.0815 2.5 28.75V3.75C2.5 3.41848 2.6317 3.10054 2.86612 2.86612C3.10054 2.6317 3.41848 2.5 3.75 2.5H28.75C29.0815 2.5 29.3995 2.6317 29.6339 2.86612C29.8683 3.10054 30 3.41848 30 3.75V7.5H11.25C10.2554 7.5 9.30161 7.89509 8.59835 8.59835C7.89509 9.30161 7.5 10.2554 7.5 11.25V30H3.75Z" fill="#000033"/>
</svg>
